<svg xmlns="http://www.w3.org/2000/svg" fill="none" viewBox="0 0 100 100"><path fill="none" d="M0 0h100v100H0z"/><path fill="#fff" d="M0 0h50c27.614 0 50 22.386 50 50s-22.386 50-50 50H0V0z"/><path fill="url(#paint0_linear)" d="M0 50L50 0c12.534 0 23.991 4.612 32.766 12.232 0 .012-12.59 12.601-37.766 37.768 25.178 25.167 37.766 37.757 37.765 37.77C73.99 95.388 62.533 100 50 100L0 50z"/><path fill="url(#paint1_linear)" d="M82.768 12.233C93.325 21.4 100 34.92 100 50c0 15.08-6.676 28.602-17.234 37.769C82.767 87.756 70.178 75.167 45 50l37.768-37.767z"/><defs><linearGradient id="paint0_linear" x2="100.225" y1="50" y2="50" gradientUnits="userSpaceOnUse"><stop stop-color="#4899F7"/><stop offset="1" stop-color="#2457F5"/></linearGradient><linearGradient id="paint1_linear" x1="45" x2="114.689" y1="12.233" y2="48.517" gradientUnits="userSpaceOnUse"><stop stop-color="#9DE1E5"/><stop offset="1" stop-color="#B8DFB2"/></linearGradient></defs></svg>