<svg width="50" height="50" viewBox="0 0 50 50" fill="none" xmlns="http://www.w3.org/2000/svg">
<mask id="mask0" mask-type="alpha" maskUnits="userSpaceOnUse" x="8" y="8" width="34" height="34">
<path fill-rule="evenodd" clip-rule="evenodd" d="M15.2582 36.4064C12.04 33.6553 10 29.5659 10 25C10 16.7157 16.7157 10 25 10C33.2843 10 40 16.7157 40 25C40 29.5756 37.9514 33.6726 34.7213 36.424C32.1031 38.6541 28.7087 40 25 40C21.2816 40 17.8791 38.647 15.2582 36.4064ZM15.4247 35.2136L15.9701 31.3085C16.3151 28.8382 18.4279 27 20.9221 27H28.5814C30.9137 27 32.9362 28.6125 33.4557 30.8862L34.4675 35.3135C31.9752 37.6026 28.6508 39 25 39C21.2964 39 17.9286 37.5619 15.4247 35.2136ZM25 42C34.3889 42 42 34.3889 42 25C42 15.6111 34.3889 8 25 8C15.6111 8 8 15.6111 8 25C8 34.3889 15.6111 42 25 42ZM25 26C28.3137 26 31 23.3137 31 20C31 16.6863 28.3137 14 25 14C21.6863 14 19 16.6863 19 20C19 23.3137 21.6863 26 25 26Z" fill="black"/>
</mask>
<g mask="url(#mask0)">
<rect width="50" height="50" fill="black"/>
</g>
</svg>
